<?xml version="1.0"?><svg version="1.2" baseProfile="tiny-ps" viewBox="0 0 900 900" xmlns="http://www.w3.org/2000/svg" xmlns:xlink="http://www.w3.org/1999/xlink"><title>BOX464</title><g><g fill="#417ad3" transform="matrix(.1 0 0 -.1 0 900)"><path d="M0 4500V0h9000v9000H0V4500z"/></g><g fill="#234689" transform="matrix(.1 0 0 -.1 0 900)"><path d="M4395 5840c-99-25-236-61-305-79s-143-37-165-42-71-18-110-28l-69-20-13-17-13-18v-807l82-87c45-48 167-174 272-279l190-193h25c27 0 87 20 506 165 138 48 288 100 334 116 47 16 91 35 99 43l14 14 9 133c4 74 14 257 20 406l12 272-13 16c-11 14-191 137-568 392l-94 63-16-1c-10-1-98-23-197-49zm204-114c9-7 115-80 236-161s221-149 223-150c2-2-36-15-85-30-48-15-105-33-126-41-20-8-48-14-61-14h-23l-219 165c-120 91-220 168-221 173-2 5 211 66 251 71 5 0 17-5 25-13zm-178-258c126-95 229-175 229-178s-74-28-165-55l-165-48-23 20c-12 11-103 94-202 183s-181 165-183 169l-3 8 108 27c59 15 119 31 133 36s29 9 33 9c5 1 112-77 238-171zm-302-228l139-125 1-320v-320l-199 205-200 205v587l60-54c32-29 122-109 199-178zm1016-27c-3-65-11-176-16-248-5-71-9-160-9-197v-67l-17-9c-10-5-54-22-98-37-308-106-537-185-575-199-25-9-48-16-52-16h-8v656l138 41c75 23 234 72 352 108 214 66 267 82 283 84l9 1-7-117zm409-797c-3-7-4-40-2-72l3-59 1073-3 1072-2v150H5549l-5-14zm-4234-76v-70h2150v140H1310v-70zm2155-444c-70-17-123-47-173-97l-43-43-32-65-32-66v-240l31-65 31-65 43-43c50-49 91-73 169-96l55-16h51c28 0 77 7 109 15l58 15 55 36 54 37 34 44c19 25 44 70 56 101l21 57-4 115-4 115-28 55c-15 30-43 73-61 96l-33 40-59 31-58 31-53 11c-66 14-123 13-187-3zm196-107l35-9 42-36 43-36 19-38c10-20 24-66 30-102l11-65-11-63c-15-81-38-127-88-172l-39-36-39-13c-22-7-61-13-89-13l-50-1-50 14-50 15-47 47-47 47-16 56-16 56v136l17 50c20 62 55 108 104 139l38 24 49 9 48 10 35-5c19-3 51-9 71-14zm-1141-283v-396h335l54 15 54 14 36 29 36 28 23 44 22 44v107l-15 29c-18 35-70 76-108 85l-27 7 40 29c23 16 50 44 61 62l20 32-3 71-3 71-27 35-27 35-48 23-48 23-187 5-188 4v-396zm358 280l32-16 15-30c8-16 15-43 15-60s-7-44-15-60l-15-30-33-17-32-17-102-4-103-4v265l103-5 103-6 32-16zm30-346l32-20 16-34 17-34-7-37-7-38-28-28-28-27-39-11-39-11h-185v260h235l33-20zm1082 455c0-3 55-85 121-182 67-98 124-184 126-191l5-12-131-194c-72-107-131-197-131-201 0-3 28-5 62-3l62 3 111 166 111 167 108-169 108-169h64c35 0 64 2 64 6 0 3-55 89-123 192s-126 193-131 200l-7 12 29 43c172 252 222 326 222 331 0 3-27 6-60 6h-59l-103-155c-57-85-106-155-109-155-4 0-52 70-108 155l-101 155h-65c-36 0-65-2-65-5zm888-245l-188-250v-59l16-15 15-16h349v-201l48 3 47 3 3 98 3 97h39c21 0 45 3 54 6l16 6v78h-110l-2 248-3 247-50 3-50 3-187-251zm189-247c-3-2-61-2-131-1l-126 3 128 175 127 174 3-173c1-96 1-176-1-178zm599 475c-35-32-233-304-261-358-12-25-27-68-33-96l-11-52 10-61 11-61 29-43 29-44 51-27 50-28 58-5 57-5 56 16 55 16 46 40 46 41 21 57 22 57-5 56-5 55-20 40c-35 68-92 107-172 117l-45 6-45-9c-25-4-46-8-47-7 0 1 52 70 118 152 65 83 119 153 119 158v7h-109l-25-22zm43-386c19-9 43-29 54-44l20-27 4-48 5-49-15-35-15-36-36-28-37-28-57-1-57-1-34 20-34 20-18 35-19 35v90l19 35 18 35 39 22 39 23h90l34-18zm431 155l-190-254v-19c0-11 7-30 16-42l15-22h348l3-97 3-98 48-3 47-3v201h96l12 12 12 12v66h-120v500h-100l-190-253zm192-69l-4-178h-250l4 10c4 12 251 351 252 347 1-1 0-82-2-179z"/></g><g fill="#010734" transform="matrix(.1 0 0 -.1 0 900)"><path d="M4510 5865c-63-18-634-165-694-179l-48-12-24-21-24-21v-792l57-63c31-34 151-160 266-279l209-216 24-6 23-6 133 46c73 25 203 69 288 98 85 30 196 68 245 85 50 18 125 44 169 59l79 27 13 20 13 20 10 185c6 102 15 279 22 393l11 208-19 21c-10 11-115 86-233 166-118 81-260 177-314 214l-100 68-30-1c-17-1-51-7-76-14zm551-457c-3-3-70-25-147-48l-141-42-229 171c-126 95-230 176-232 180l-3 8 113 28c62 15 122 31 133 35l20 7 246-166 247-166-7-7zm-634 61c260-196 238-178 231-184-2-3-80-28-172-55l-168-51-51 48c-29 26-54 50-57 53s-61 55-130 117c-69 61-138 125-154 141l-28 31 38 10c158 44 222 60 241 60l23 1 227-171zm-541-10c10-12 101-96 202-186l182-164v-327l-1-327-209 215-209 215-1 298v297h8c5 0 17-10 28-21zm1246-386c-7-142-15-286-18-320l-5-62-67-25c-37-13-197-70-357-125-159-54-298-102-308-106l-17-7 2 337 3 337 195 60c107 33 215 66 240 73s110 33 190 58 147 44 150 42-1-119-8-262zm418-723v-70l1068 2 1067 3 3 68 3 67H5550v-70zm-4240-10v-70h2140v140H1310v-70zm2135-453c-65-22-100-44-151-94l-47-48-23-50-23-50-12-73-12-73 13-72 12-72 25-48 24-49 45-45 45-45 57-26 57-27h220l63 29 63 29 48 52 47 53 23 58 23 59 5 75 6 76-12 53c-6 29-23 77-38 107l-27 55-44 40-43 41-57 26-57 26-95 3-95 3-40-13zm251-105c46-24 84-64 117-126l22-41v-220l-23-42c-12-23-36-58-53-77l-30-35-57-21-57-22-66 4-65 3-50 26-49 25-32 42c-37 49-52 93-60 178l-6 62 13 53 12 54 29 46 30 47 38 25c22 14 54 30 72 36l34 10 70-3 70-3 41-21zm-1166-282v-393l173 6 172 5 50 16 50 15 31 29c18 16 40 44 49 62l18 34v126l-18 27c-23 34-48 53-98 74l-40 16 46 26 45 27 22 46 23 46-6 55-6 54-26 35-26 34-42 22-42 23-187 3-188 4v-392zm368 281l32-22 7-27c10-40 8-76-7-111l-13-32-38-20-38-19h-211v262l118-4 118-4 32-23zm2-333l45-23 12-25c7-14 13-42 13-63v-38l-16-30-15-31-42-19-42-19h-225v270h226l44-22zm1106 430c4-7 59-89 122-182 64-93 115-174 115-180s-55-94-122-194c-67-101-125-190-128-198l-5-14h100l29 38c16 20 68 97 117 170l87 132 9-5c4-3 50-71 101-152 51-82 99-156 107-165l15-18h107v9c0 6-41 72-91 148-51 76-107 162-126 191l-35 52 4 18c3 9 57 92 122 184 64 92 116 170 116 173s-25 5-55 5h-55l-102-155c-57-85-106-155-109-155-4 0-52 70-107 155l-101 155h-122l7-12zm871-238l-188-250 9-32 8-33 185-5 184-5 3-102 3-103h79v209l58 3 57 3 3 38 3 37h-121v490h-95l-188-250zm200-237c-3-2-65-2-139-1l-134 3 135 185 136 185 3-184c1-101 1-186-1-188zm597 479c-6-4-65-79-130-167l-119-160-24-55-24-55-5-52-4-52 12-50 12-51 28-38 28-39 53-27 53-26h131l48 17 49 18 35 34 35 34 19 41 19 41v130l-19 40-18 40-36 32-36 32-38 10c-48 14-108 14-152 1-19-5-36-8-38-6s47 68 110 147c62 79 116 150 121 157l7 12h-53c-29 0-58-4-64-8zm36-384l45-23 19-35 20-34v-101l-17-32c-9-17-31-42-49-54l-32-23-57-4-57-4-40 22-39 22-15 26c-9 15-18 44-22 64l-7 38 11 39 10 40 30 28c34 32 81 51 125 52l31 1 44-22zm603 370c-11-13-95-123-187-245l-166-223v-24c0-13 3-31 6-40l6-16h368v-210h79l3 103 3 102 58 3 57 3v79h-120v490h-87l-20-22zm27-283v-185h-272l4 8c4 11 262 362 265 362 2 0 3-83 3-185z"/></g></g></svg>