<?xml version="1.0" encoding="UTF-8" standalone="yes"?><!-- Created with Inkscape (http://www.inkscape.org/) --><svg xmlns="http://www.w3.org/2000/svg" width="1200" height="1200" version="1.2" viewBox="0 0 1200 1200" baseProfile="tiny-ps"><title>BOX464</title><path d="m0 600v-600h1200v1200h-1200z" fill="#4079d0"></path><path d="m460.56 786.4c-17.934-4.3377-33.113-20.353-37.094-39.14-8.7664-41.368 20.162-74.819 60.085-69.477 22.012 2.9452 38.205 17.578 43.91 39.68 1.9529 7.5653 1.9534 22.154 1e-3 30.437-4.5302 19.218-19.143 34.223-37.556 38.563-7.9367 1.8708-21.47 1.8416-29.346-0.0634zm30.813-19.26c10.214-5.0281 15.429-12.921 17.713-26.807 2.1932-13.33-1.3275-27.296-8.9718-35.589-12.61-13.681-36.62-13.681-49.231 0-14.421 15.644-12.128 48.503 4.1728 59.799 10.71 7.422 24.51 8.4089 36.316 2.597zm247.13 19.461c-10.296-3.2647-16.407-8.3286-20.894-17.313-6.4059-12.827-4.841-30.448 3.9393-44.357 4.1506-6.575 30.93-42.251 33.244-44.289 1.406-1.2381 4.2774-2.035 8.576-2.38 8.0566-0.6467 11.634 0.16462 11.634 2.6383 0 1.0224-6.3 9.7961-14 19.497-7.7 9.701-14 17.802-14 18.003s4.1625 0.55845 9.25 0.79533c6.4405 0.29989 10.644 1.0568 13.839 2.492 18.388 8.259 23.779 35.15 10.543 52.598-4.0791 5.3776-11.169 10.15-18.049 12.15-6.3981 1.86-18.478 1.9429-24.084 0.16532zm21.447-16.527c1.8957-0.94128 4.8004-3.384 6.455-5.4282 2.4825-3.0673 3.0796-4.8375 3.4166-10.13 0.80623-12.662-6.451-20.713-18.671-20.713-12.273 0-20.148 7.7589-20.148 19.852 0 14.714 15.114 23.287 28.947 16.418zm-424.21 16.336c-0.40711-0.4071-0.74019-24.692-0.74019-53.967 0-47.613 0.16682-53.29 1.5818-53.833 0.86998-0.33385 9.3075-0.59808 18.75-0.58718 26.287 0.0303 36.931 2.0897 44.562 8.6213 5.7755 4.9436 8.325 10.368 8.8824 18.899 0.59115 9.0482-2.082 15.799-8.49 21.439l-4.4352 3.904 3.8245 1.9668c8.5892 4.417 12.69 11.759 12.651 22.65-0.047 13.098-7.4252 23.606-20.125 28.662-5.2869 2.1048-7.5209 2.2959-30.711 2.6273-13.755 0.19654-25.343 0.0242-25.75-0.38285zm50.155-17.907c5.6313-3.317 7.6045-6.8245 7.6045-13.518 0-5.2913-0.32694-6.2084-3.3102-9.2864-1.8206-1.8784-5.0228-3.9284-7.116-4.5555-5.4163-1.6228-29.068-1.5335-29.093 0.10976-0.0105 0.6875-0.12303 7.7018-0.25 15.587l-0.23084 14.337 14.5-0.33744c12.312-0.28651 15.012-0.63929 17.895-2.3374zm-7.2866-44.976c7.381-2.1919 10.673-6.1171 11.132-13.272 0.29081-4.5321-0.0712-6.4526-1.708-9.0612-3.0554-4.8693-7.67-6.3422-21.779-6.9516l-12.254-0.5292v31.291h9.8185c5.7465 0 11.88-0.61234 14.79-1.4765zm150.96 61.8c-0.44177-1.1512 4.6929-9.6926 16.393-27.269 9.3699-14.076 17.036-26.121 17.036-26.767s-7.2-11.772-16-24.726-16-24.406-16-25.45 0.7118-2.1714 1.5818-2.5052c2.0239-0.77664 13.228-0.76477 16.144 0.0171 1.5152 0.40615 6.2695 6.7904 14.884 19.986 6.9617 10.664 12.976 19.39 13.365 19.39s6.6167-8.7194 13.84-19.376c8.9259-13.17 13.862-19.572 15.409-19.986 2.956-0.79197 13.157-0.81225 15.195-0.0302 0.86999 0.33384 1.5818 1.3705 1.5818 2.3037s-6.359 10.898-14.131 22.143c-7.7722 11.245-15.222 22.081-16.555 24.078l-2.4235 3.6318 17.136 26.075c9.9872 15.197 16.993 26.823 16.794 27.868-0.29092 1.5222-1.5874 1.8374-8.5722 2.0838-4.5262 0.15966-9.0626-0.15564-10.081-0.70066s-5.3943-6.5256-9.7244-13.29c-4.33-6.7646-10.289-16.066-13.242-20.67l-5.3688-8.3705-12.539 18.871c-16.931 25.481-15.752 24.371-25.874 24.371-6.7552 0-8.3196-0.29635-8.8492-1.6763zm145.67 0.5165c-0.85251-0.85251-1.2402-5.0853-1.2402-13.54v-12.3h-22.545c-22.303 0-22.571-0.0252-24.885-2.3395-1.2867-1.2867-2.6558-4.2118-3.0425-6.5001l-0.70293-4.1606 24.202-32.25c13.311-17.737 25.301-33.262 26.644-34.5 1.9419-1.7894 3.6076-2.2469 8.1361-2.2347 3.1318 8e-3 6.2504 0.36856 6.9301 0.8003 0.93053 0.59102 1.3011 8.8025 1.5 33.235l0.26412 32.45 15 1 0.29513 5.5901c0.3693 6.9949-0.9057 8.2302-9.1966 8.9099l-6.0985 0.5-1 26-6.5098 0.29021c-4.2027 0.18737-6.9493-0.14932-7.75-0.95zm-1.2402-60.984v-20.144l-3.3374 4.3938c-8.027 10.568-25.663 34.864-25.663 35.355 0 0.29638 6.525 0.53887 14.5 0.53887h14.5zm169.67 61.477c-0.36667-0.36666-0.66667-6.4417-0.66667-13.5v-12.833h-22.418c-12.33 0-23.147-0.27953-24.037-0.62118-2.3194-0.89004-4.5448-5.695-4.5448-9.813 0-3.0626 3.284-7.9001 24.642-36.3 13.553-18.021 25.339-33.329 26.191-34.016 1.9853-1.6021 13.377-1.6401 14.967-0.05 0.8838 0.8838 1.2 9.7111 1.2 33.5v32.3h6.8776c8.3983 0 9.6027 1.0472 8.8531 7.6973-0.66942 5.9391-2.5222 7.3027-9.9218 7.3027h-5.8089v12.3c0 8.2333-0.39675 12.697-1.2 13.5-1.2568 1.2568-12.968 1.6988-14.133 0.53333zm-0.66667-61.333c0-11-0.1931-20-0.4291-20-0.23601 0-6.6048 8.4375-14.153 18.75-7.548 10.312-14.16 19.312-14.693 20-0.76611 0.98764 2.2044 1.25 14.153 1.25h15.122zm-669.57-93.321c-0.27884-0.72665-0.37722-5.7892-0.21862-11.25l0.28837-9.9288 143.45-0.25341c93.012-0.16432 143.79 0.0923 144.43 0.72981 1.2245 1.2245 1.613 16.719 0.49589 19.774l-0.82279 2.25h-143.56c-118.05 0-143.65-0.23476-144.06-1.3212zm393.88-0.24864c-3.2461-1.6506-69.804-69.822-72.024-73.77-0.9093-1.6172-1.2235-15.568-1.25-55.506-0.0321-48.335 0.12334-53.614 1.6551-56.208 0.92982-1.574 2.8423-3.319 4.25-3.8776 1.4077-0.5586 27.163-7.3448 57.234-15.08 37.53-9.6545 55.497-13.858 57.297-13.407 1.4422 0.36197 5.4137 2.5446 8.8255 4.8504 3.4118 2.3057 15.428 10.43 26.703 18.055 11.275 7.6243 27.104 18.297 35.176 23.717s16.059 11.147 17.75 12.727c2.8938 2.7032 3.0735 3.3018 3.0682 10.22-3e-3 4.0418-1.1198 28.393-2.4816 54.113-2.6569 50.181-2.8092 51.178-8.1878 53.639-5.3947 2.468-118.65 41.274-121.73 41.711-1.7293 0.24487-4.5082-0.27808-6.2888-1.1835zm63.69-41.845c25.025-8.6248 46.014-15.852 46.641-16.06s1.4134-3.4491 1.7461-7.2019c1.1902-13.425 3.8382-73.431 3.2657-74.004-0.47-0.47-53.924 15.43-91.903 27.338l-7.75 2.4298v42.063c0 33.237 0.2623 41.964 1.25 41.59 0.6875-0.26057 21.725-7.5304 46.75-16.155zm-64-30.462v-38.877l-8.7494-7.8729c-4.8122-4.3301-16.053-14.51-24.98-22.623s-16.465-14.75-16.751-14.75-0.50626 16.312-0.48956 36.25l0.0304 36.25 24.571 25.25c13.514 13.888 24.975 25.25 25.47 25.25 0.51589 0 0.89847-16.554 0.89847-38.877zm30.574-58.792c10.164-3.1182 18.355-6.0162 18.203-6.44-0.25596-0.71243-6.8034-5.7608-43.683-33.682-9.7811-7.4051-14.154-10.147-15.593-9.7782-1.1 0.28222-8.6367 2.2133-16.748 4.2913s-14.749 4.0587-14.75 4.4015 6.3961 6.4178 14.216 13.5c7.8196 7.0822 19.182 17.467 25.25 23.079 6.0679 5.611 11.841 10.224 12.83 10.25 0.98848 0.0265 10.113-2.5032 20.277-5.6213zm55.741-16.975c8.3519-2.5542 15.553-4.9695 16.003-5.3672 0.44947-0.39776-5.8505-5.1849-14-10.638s-21.693-14.562-30.096-20.243l-15.279-10.328-15.012 3.7378c-8.2564 2.0558-14.881 4.1294-14.721 4.608 0.36238 1.0844 55.986 42.827 57.106 42.855 0.44809 0.011 7.6481-2.0699 16-4.6241zm85.066 146.45c-1.0738-1.7375-0.82669-19.761 0.28622-20.874 0.58007-0.58007 55.85-0.84283 144.39-0.68641l143.45 0.25341v22l-143.69 0.25339c-110.89 0.19554-143.86-0.0205-144.43-0.9463z" fill="#3c72c7"></path><path d="m466.54 786.86c-20.269-2.6265-36.301-17.224-42.136-38.365-1.8448-6.6846-1.7967-24.571 0.0855-31.797 4.8524-18.63 20.259-33.742 38.31-37.577 18.572-3.9461 37.333 1.1022 49.827 13.408 10.614 10.454 15.692 23.401 15.674 39.966-0.0183 17.157-4.7806 29.763-15.169 40.151-11.512 11.512-28.188 16.599-46.593 14.214zm23.249-18.079c7.0785-2.6209 14.318-9.9152 17.365-17.497 2.0169-5.018 2.328-7.5196 2.3363-18.789 9e-3 -11.998-0.19544-13.438-2.6508-18.675-3.5515-7.5761-9.7302-14.078-16.113-16.954-7.2764-3.2797-22.961-3.4192-29.778-0.26489-13.345 6.175-19.912 18.255-19.937 36.676-0.0135 10.001 2.3186 18.432 6.968 25.189 8.219 11.946 25.733 16.267 41.809 10.315zm252.86 18.166c-24.625-4.132-35.796-31.235-23.243-56.394 3.8343-7.6849 29.549-43.033 35.172-48.348 3.3943-3.2086 3.6761-3.2842 11.191-3 6.164 0.2331 7.7705 0.61627 8.0178 1.9124 0.1703 0.89242-5.8512 9.4313-13.399 19-7.5393 9.5585-14.075 17.862-14.524 18.453-0.568 0.74668 1.9923 1.0629 8.4094 1.0386 7.8545-0.0298 10.056 0.34876 14.812 2.5463 10.145 4.6877 16.009 12.497 17.818 23.731 3.2741 20.33-9.45 37.722-30.043 41.064-7.0735 1.1478-7.3621 1.1477-14.211-2e-3zm16.891-15.831c10.273-4.6665 14.249-17.33 8.9488-28.5-2.7298-5.7527-8.3686-8.9965-16.38-9.4227-8.2048-0.43651-14.114 2.3305-18.611 8.715-2.6071 3.7015-3 5.1321-3 10.923 0 12.556 7.389 20.188 19.5 20.141 3.1586-0.0122 7.2205-0.80268 9.5414-1.8569zm-407.5 15.105c-10.828-0.19569-15.69-0.64559-16.235-1.5022-0.4273-0.67255-0.78381-24.195-0.79223-52.273-0.0115-38.39 0.28229-51.348 1.1847-52.25 0.85649-0.85649 7.0826-1.1958 21.75-1.1852 28.168 0.0203 36.781 2.1799 44.457 11.148 4.4963 5.2529 5.8922 10.24 5.4297 19.399-0.4187 8.2916-3.2483 13.551-9.8722 18.349l-3.9968 2.8953 4.5134 2.1849c11.498 5.5659 16.082 17.896 11.927 32.078-1.2397 4.2313-2.8423 6.6568-7.2524 10.976-9.3842 9.1918-17.405 10.789-51.114 10.18zm33.181-16.961c6.3094-2.8428 8.768-6.9434 8.7729-14.632 3e-3 -5.4497-0.26336-6.1346-3.7463-9.6149-4.7318-4.7284-10.258-6.0174-25.799-6.0174h-11.451v15.833c0 8.7083 0.3375 16.178 0.75 16.6 0.4125 0.42173 6.6 0.585 13.75 0.36283 10.518-0.32683 13.902-0.81026 17.723-2.5321zm-3.2753-46.565c6.4234-3.1758 8.5591-6.5896 8.5196-13.619-0.0375-6.6703-1.8794-10.171-6.727-12.787-2.5139-1.3562-6.3241-1.8309-16.991-2.1167l-13.75-0.36842v15.429c0 8.4861 0.3375 15.777 0.75 16.201s5.925 0.47656 12.25 0.11577c8.8896-0.50708 12.51-1.1552 15.948-2.8551zm149.8 63.186c-0.9625-0.54156-1.75-1.4443-1.75-2.0061 0-0.5618 7.698-12.465 17.107-26.451 10.692-15.893 16.888-26.001 16.522-26.953-0.32145-0.83769-7.6011-11.869-16.177-24.515-8.7979-12.973-15.448-23.747-15.261-24.726 0.27438-1.437 1.6611-1.7847 8.0836-2.0269 4.2638-0.16077 8.4676 0.10794 9.3417 0.59714 0.87414 0.48919 7.108 9.3756 13.853 19.748s12.741 19.018 13.326 19.212c0.58406 0.19469 6.9685-8.4452 14.188-19.2 8.9309-13.305 13.837-19.732 15.353-20.113 1.2249-0.30744 5.1338-0.42245 8.6863-0.25558 5.0439 0.23693 6.5277 0.66356 6.772 1.9471 0.1721 0.90404-6.9109 12.097-15.74 24.873-8.8291 12.776-16.053 23.889-16.053 24.695 0 0.80614 7.425 12.744 16.5 26.529s16.5 25.842 16.5 26.795c0 2.3221-2.4063 2.8122-10.844 2.2084-4.814-0.34444-7.5192-1.0254-8.442-2.125-0.74683-0.89001-6.8843-10.283-13.639-20.873-6.7545-10.59-12.624-19.467-13.044-19.726s-6.7261 8.4958-14.014 19.456c-7.2882 10.96-13.986 20.564-14.884 21.343-2.0281 1.7582-14.007 2.9043-16.383 1.5675zm145.75 0.18053c-1.8189-0.69328-2.0453-1.9305-2.5-13.664l-0.5-12.902-23.111-0.26809c-26.232-0.30429-26.246-0.30861-27.049-8.4413-0.4205-4.2601-0.24391-4.5285 24.868-37.791l25.292-33.5 6.3373-0.29998c3.8114-0.18042 6.9004 0.16732 7.75 0.87244 1.1629 0.96509 1.4127 6.81 1.4127 33.05v31.878l6.25 0.0153c8.0666 0.0198 9.25 0.82509 9.25 6.2945 0 6.4121-1.5161 7.6902-9.1224 7.6902l-6.3776 1e-5v13.031c0 9.553-0.33366 13.134-1.25 13.417-3.1249 0.96309-9.435 1.3096-11.25 0.61779zm-2.5-62.066c0-11.55-0.17574-21-0.39052-21-0.3799 0-28.54 38.254-29.998 40.75-0.5709 0.97771 2.6593 1.25 14.829 1.25h15.559zm171 62.203c-2.6512-0.88923-2.9691-2.4816-2.9847-14.953l-0.01531-12.25h-23c-21.667 0-23.116-0.11594-25-2-1.1-1.1-2.0061-2.7875-2.0136-3.75-8e-3 -0.9625-0.25979-2.6661-0.56062-3.7858-0.41405-1.5411 5.5698-10.168 24.625-35.5 13.844-18.405 25.684-33.805 26.311-34.222 0.62653-0.41683 4.0641-0.64183 7.6391-0.5l6.5 0.25788 0.26366 32.75 0.26367 32.75h6.0521c8.2894 0 9.9243 1.0374 9.9053 6.2852-0.0229 6.3075-0.96754 7.1454-8.6972 7.7148l-6.7875 0.5-0.2802 12.793c-0.19683 8.9866-0.64313 12.904-1.5 13.168-2.4738 0.75988-9.2655 1.2304-10.72 0.74257zm-3-62.37c0-11.642-0.15307-20.979-0.34016-20.75-0.18709 0.22917-6.1114 8.2917-13.165 17.917-7.0538 9.625-13.929 18.962-15.279 20.75l-2.4535 3.25h31.237zm-669.2-93.58c-0.69633-2.8046-0.19048-18.196 0.62482-19.011 1.2359-1.2361 283.35-1.4317 285.66-0.19803 1.8082 0.96771 1.963 1.9454 1.7033 10.76l-0.28556 9.6958-143.63 0.25338c-136.19 0.24025-143.66 0.16249-144.07-1.5zm393.2 0.30054c-3.5291-1.9283-70.242-71.128-71.705-74.377-0.88747-1.9717-1.2168-16.204-1.25-54.026-0.0505-57.532-0.16656-56.511 6.7582-59.481 4.4521-1.91 108.26-28.67 111.22-28.67 3.3345 0 6.143 1.7666 49.744 31.289 33.422 22.63 41.751 28.708 42.809 31.24 1.2814 3.0669 0.36921 27.774-3.4142 92.471-0.88021 15.052-2.2452 20.037-5.8754 21.457-13.937 5.4507-120.78 41.533-122.89 41.503-1.5922-0.022-4.02-0.65474-5.395-1.406zm68-41.713c23.925-8.2628 43.801-15.32 44.169-15.682 0.76644-0.75398 5.0765-81.246 4.3873-81.935-0.71673-0.71673-99.984 29.864-100.71 31.024-0.84375 1.3561-1.1433 83.128-0.30754 83.963 0.35024 0.35024 2.5086-0.0345 4.7964-0.85506 2.2878-0.82052 23.735-8.2523 47.66-16.515zm-68-29.175v-40.335l-25.143-22.742c-15.958-14.434-25.404-22.32-25.857-21.587-0.98001 1.5857-1.2334 67.849-0.27212 71.166 0.62829 2.168 49.445 53.833 50.865 53.833 0.22426 0 0.40774-18.151 0.40774-40.335zm30.624-58.752c10.932-3.3475 20.021-6.2295 20.197-6.4044 0.81517-0.8073-58.295-44.509-60.196-44.504-1.1687 3e-3 -9.0062 1.8027-17.417 4-8.4104 2.1973-15.498 3.995-15.75 3.995s-0.45838 0.41419-0.45838 0.92043c0 1.1101 51.67 48.08 52.891 48.08 0.47097 0 9.8006-2.7389 20.733-6.0864zm57.126-17.44c8.9375-2.6758 16.25-5.2069 16.25-5.6248s-13.72-10.025-30.488-21.349l-30.488-20.589-15.762 4.1435c-8.6691 2.2789-15.915 4.2896-16.102 4.4682-0.62914 0.60034 58.329 44.444 59.34 44.128 0.55-0.1717 8.3125-2.5014 17.25-5.1772zm83.917 145.86c-0.36667-0.36666-0.66667-4.8508-0.66667-9.9648 0-8.1694 0.23482-9.4238 1.9343-10.333 2.249-1.2036 282.84-1.4696 284.72-0.26987 1.0217 0.65157 1.7762 10.237 1.4551 18.485l-0.1071 2.75h-143.33c-78.833 0-143.63-0.3-144-0.66667z" fill="#3668b8"></path><path d="m463.06 785.91c-13.572-2.6613-27.146-13.18-33.634-26.063-14.218-28.233-4.1554-63.024 21.943-75.868 32.192-15.842 69.837 2.6524 75.659 37.171 6.2623 37.127-16.985 66.286-52.412 65.74-3.9124-0.0603-9.1131-0.50166-11.557-0.98089zm27.944-17.086c9.6712-4.5178 15.736-12.357 18.442-23.838 4.8997-20.789-2.5065-40.846-17.744-48.052-14.111-6.6737-32.644-3.5937-41.916 6.9661-9.827 11.192-12.488 32.969-5.9037 48.319 2.3323 5.4374 9.1227 13.206 13.57 15.525 9.757 5.0874 23.991 5.5453 33.552 1.0792zm247.81 16.762c-6.1641-1.7723-10.783-4.7061-15.327-9.7359-5.7349-6.3478-7.7955-11.942-8.2874-22.5-0.50615-10.863 1.6438-18.705 7.688-28.041 6.5712-10.15 30.881-42.457 33.136-44.037 3.0638-2.146 13.955-2.8446 16.334-1.0478 1.7379 1.3126 1.1162 2.3382-9.9046 16.338-6.4674 8.2154-13.264 16.783-15.104 19.04-1.84 2.2566-3.3454 4.3376-3.3454 4.6244 0 0.28681 3.9375 0.30642 8.75 0.0436 7.2621-0.3966 9.6987-0.11882 14.329 1.6336 7.4984 2.8376 13.213 7.9541 16.61 14.871 2.4826 5.0555 2.8109 6.8341 2.8102 15.224-8.9e-4 11.323-1.8512 16.255-8.9442 23.838-6.6186 7.0758-14.607 10.457-25.555 10.817-5.007 0.1647-10.427-0.27445-13.189-1.0686zm21.596-14.262c7.309-3.6984 10.594-9.3474 10.594-18.219 0-7.3158-1.1764-10.624-5.2968-14.895-9.2098-9.5476-27.864-6.7723-33.559 4.9928-5.4349 11.227 0.34064 27.113 10.683 29.385 1.4701 0.32295 3.1229 0.75944 3.6729 0.96997 1.9413 0.74312 10.852-0.68806 13.906-2.2335zm-423.74 14.009c-0.36667-0.36666-0.66667-23.976-0.66667-52.465 0-50.188 0.0601-51.83 1.9343-52.833 2.372-1.2695 27.401-1.3342 39.066-0.10105 19.671 2.0796 29.366 9.98 30.732 25.045 0.86644 9.5552-2.723 17.104-10.975 23.082l-4.0368 2.9242 3.6026 1.5053c9.0422 3.7781 14.855 12.169 14.944 21.57 0.15106 16.037-9.4102 27.346-26.066 30.831-5.6534 1.1828-47.413 1.5631-48.534 0.44203zm49.833-15.891c7.8793-4.0538 10.938-16.354 5.7851-23.267-4.3734-5.8676-7.3125-6.6755-24.285-6.6755h-15.5l-0.27791 14.956c-0.15286 8.2258-0.0386 15.58 0.25378 16.342 0.42826 1.116 3.4003 1.3191 15.278 1.0439 12.488-0.28933 15.359-0.65673 18.746-2.3996zm-4-46.029c5.8055-3.029 8.5-7.502 8.5-14.111 0-6.9921-2.0324-10.76-7.2706-13.477-3.7184-1.929-5.8606-2.202-17.729-2.2598l-13.5-0.0657-0.27791 14.956c-0.15286 8.2258-0.0372 15.583 0.25708 16.35 0.4288 1.1174 3.0643 1.3246 13.278 1.0439 10.523-0.28922 13.44-0.71382 16.743-2.4372zm148.84 61.043c-0.37517-0.97768 5.7253-11.036 16.624-27.409l17.217-25.865-16.754-24.737c-15.653-23.112-16.632-24.826-14.902-26.091 2.0965-1.533 11.134-1.8124 14.705-0.45467 1.5406 0.58573 6.8274 7.7343 15.161 20.5 7.0375 10.78 13.197 19.601 13.687 19.601s6.7648-8.7928 13.943-19.54c8.8777-13.291 13.859-19.847 15.578-20.5 3.3432-1.2711 11.033-1.2252 13.472 0.0804 2.4893 1.3322 3.1182 0.23221-15.826 27.685-8.3875 12.154-15.25 22.513-15.25 23.019 0 0.50617 7.6641 12.541 17.031 26.744 9.3672 14.203 16.868 26.316 16.67 26.917-0.21033 0.63597-3.6936 1.2139-8.3221 1.3808-7.2168 0.26025-8.1542 0.0734-10.035-2-1.1412-1.2579-7.5682-10.943-14.282-21.523-6.7139-10.58-12.564-19.456-12.999-19.726s-7.2011 9.1448-15.034 20.92c-7.833 11.775-14.906 21.664-15.717 21.976-0.81107 0.31124-4.377 0.56589-7.9243 0.56589-4.8929 0-6.5926-0.37276-7.0422-1.5444zm144.72-0.34174c-0.58351-1.0903-1.0609-7.1869-1.0609-13.548v-11.566l-21.75-0.0136c-11.962-8e-3 -22.707-0.27042-23.876-0.58424-2.3274-0.62458-3.9375-3.2563-4.8433-7.916-0.53087-2.7311 1.6722-6.0152 23.478-35 13.235-17.592 25.198-32.999 26.583-34.236 2.5352-2.2641 7.3514-2.9079 12.144-1.6232l2.2365 0.59944 0.52704 65.274 15 1 0.29816 4.5876c0.38255 5.8861-1.212 7.2575-9.1996 7.9124l-6.0985 0.5-1 26-5.6891 0.29809c-4.8264 0.25288-5.85-3e-3 -6.75-1.6843zm-1.0609-60.114c0-12.1-0.16841-22-0.37424-22-0.48942 0-31.024 41.767-31.459 43.031-0.20599 0.59866 5.811 0.96875 15.75 0.96875h16.083zm169.67 61.333c-0.36667-0.36666-0.66667-6.4417-0.66667-13.5v-12.833h-22.889c-26.159 0-26.788-0.17479-27.8-7.7224l-0.56359-4.2019 25.213-33.444c15.737-20.874 26.026-33.662 27.377-34.024 3.403-0.91286 8.6124-0.70527 10.729 0.42756 1.8514 0.99083 1.9343 2.4264 1.9343 33.5v32.465h6.9648c6.0575 0 7.1116 0.27427 8.0915 2.1053 1.5127 2.8264 0.31986 8.623-2.0336 9.8826-1.0402 0.55668-4.3958 1.0122-7.457 1.0122h-5.5657v12.3c0 8.2333-0.39675 12.697-1.2 13.5-1.2576 1.2576-10.982 1.685-12.133 0.53333zm-0.89717-61.583c0.14823-11.962-0.0768-21.724-0.5-21.692-0.98205 0.0746-30.659 40.722-31.098 42.593-0.27282 1.1632 2.346 1.3531 15.5 1.1239l15.828-0.27579zm-669.34-93.076c-0.28124-0.73291-0.38021-5.3469-0.21992-10.253l0.29142-8.9209h286v20l-142.78 0.25341c-118.2 0.20978-142.87 0.024-143.29-1.0791zm393.07-0.47482c-3.6471-2.2688-70.658-71.392-71.653-73.912-0.38832-0.98324-0.73766-25.323-0.77631-54.087-0.0767-57.098-0.1131-56.716 5.6326-59.059 2.4945-1.017 31.871-8.728 91.601-24.044 18.375-4.7118 20.042-4.9788 23.104-3.6995 5.5126 2.3033 86.648 57.76 88.386 60.412 1.5012 2.2911 1.4216 6.3507-1.0775 54.973-2.3484 45.691-2.9329 52.903-4.5068 55.608-1.718 2.9533-4.8076 4.1463-61.76 23.847-32.973 11.406-61.301 20.983-62.951 21.283-1.9754 0.35858-4.0246-0.0928-6-1.3217zm64.336-39.64c26.035-9.0187 47.581-16.643 47.882-16.944 0.72136-0.72135 4.8364-82.396 4.1842-83.048-0.41647-0.41647-32.87 9.2745-92.152 27.517l-9.75 3.0004v42.957c0 33.71 0.26907 42.952 1.25 42.936 0.6875-0.0117 22.551-7.4003 48.586-16.419zm-63.836-29.869c0-30.72-0.29736-40.693-1.25-41.922-1.9616-2.5318-50.124-45.769-50.983-45.769-0.4221 0-0.76746 16.918-0.76746 37.596v37.596l25.659 26.404c14.112 14.522 26.037 26.404 26.5 26.404s0.84104-18.139 0.84104-40.309zm33-60.175c8.525-2.592 16.13-5.0618 16.901-5.4883 0.98336-0.54449-7.6332-7.5587-28.921-23.542l-30.321-22.767-12.579 3.1882c-18.679 4.7343-23.079 6.0627-23.079 6.9679 0 0.84869 46.154 42.99 51.218 46.765 2.6256 1.9572 3.2267 2.0307 7.0756 0.86426 2.3134-0.70108 11.181-3.3954 19.706-5.9875zm45.698-13.944c4.2909-1.3354 11.739-3.6126 16.552-5.0605s8.75-3.029 8.75-3.5136c0-1.3691-60.67-41.999-62.7-41.989-1.9288 9e-3 -31.259 7.6167-31.922 8.2798-0.72891 0.72891 58.097 44.684 59.82 44.698 0.93411 8e-3 5.2091-1.0789 9.5-2.4142zm92.729 142.1c-0.28052-0.73103-0.3789-5.3435-0.21861-10.25l0.29142-8.9209h286l0.2897 9.4164c0.2111 6.8592-0.061 9.6386-1 10.235-0.7093 0.45004-65.091 0.82515-143.07 0.83357-117.02 0.0126-141.87-0.21686-142.29-1.3138z" fill="#2f5aa6"></path><path d="m464.49 785.55c-19.005-3.454-34.878-18.909-39.489-38.451-1.7134-7.261-1.4607-23.222 0.48306-30.513 6.0746-22.787 25.631-37.581 49.676-37.581 10.152 0 16.847 1.5033 25.071 5.6292 20.079 10.074 30.878 34.27 26.405 59.166-3.0993 17.252-12.376 30.037-27.003 37.215-11.636 5.7102-21.603 6.9967-35.143 4.5359zm25.478-15.828c7.4049-2.7427 14.944-10.336 18.118-18.249 2.0941-5.221 2.3953-7.5982 2.4038-18.969 9e-3 -12.493-0.11202-13.257-3.1123-19.589-3.826-8.0745-8.9375-13.343-16.292-16.792-4.8604-2.2793-6.8861-2.6198-15.586-2.6198-8.7066 0-10.711 0.3375-15.5 2.6094-13.503 6.4062-19.986 18.547-19.967 37.391 0.0167 16.293 6.5527 28.853 18.112 34.804 9.694 4.9906 20.832 5.4857 31.824 1.4144zm252.9 16.264c-24.136-4.0783-35.009-31.042-22.485-55.758 2.85-5.6242 31.507-44.678 35.203-47.975 2.1367-1.9059 3.6608-2.25 9.9667-2.25 5.2929 0 7.442 0.36124 7.4364 1.25-4e-3 0.6875-6.7508 9.8-14.992 20.25s-14.988 19.326-14.992 19.725c-4e-3 0.39875 1.4546 0.39875 3.2421 0s6.4-0.68663 10.25-0.63973c15.297 0.18632 26.749 9.8851 29.421 24.915 3.5187 19.799-8.977 37.194-29.059 40.453-7.046 1.1433-7.3978 1.144-13.991 0.0299zm16.638-13.848c15.851-7.2008 16.546-31.211 1.1075-38.222-15.685-7.1227-33.5 5.3269-31.238 21.83 0.66538 4.8544 3.515 10.949 6.2951 13.463 5.3621 4.849 16.576 6.2272 23.835 2.9294zm-421.76 12.785c-1.63-0.94939-1.75-4.4728-1.75-51.388 0-27.703 0.27314-51.08 0.60699-51.95 0.87652-2.2842 38.321-2.3045 48.337-0.0262 12.919 2.9384 20.171 9.8218 21.87 20.759 1.6963 10.919-1.6885 19.554-9.8946 25.241-2.1558 1.494-3.9197 2.9989-3.9197 3.3442 0 0.34536 2.2801 1.7104 5.067 3.0336 8.5212 4.0456 12.933 11.295 12.933 21.251 0 16.409-11.63 27.596-31.003 29.823-11.15 1.2818-39.998 1.2216-42.247-0.0881zm47.831-14.983c6.6741-3.3083 9.4198-7.6345 9.415-14.835-5e-3 -7.3888-2.5429-11.552-8.7729-14.39-4.1275-1.8803-6.5525-2.1555-19.223-2.182l-14.5-0.0302-0.27646 15.96c-0.15205 8.7779-0.0316 16.598 0.26759 17.378 0.44485 1.1592 3.0631 1.3374 14.359 0.97687 12.101-0.3862 14.425-0.74316 18.731-2.8776zm-2.5126-46.687c4.5676-2.3144 5.7258-3.4823 7.3119-7.3733 3.8429-9.4275-0.60469-19.18-9.9274-21.768-2.1742-0.60362-9.4656-1.1-16.203-1.1031l-12.25-0.00558v33h12.821c12.004 0 13.166-0.17521 18.248-2.75zm148.98 61.803c-1.1602-0.73396 1.9786-6.0657 15.75-26.754 9.4594-14.211 17.199-26.387 17.199-27.06 0-0.67226-7.2-11.791-16-24.708-8.8-12.917-16-24.171-16-25.008 0-1.2335 1.4851-1.5224 7.8257-1.5224 6.8561 0 8.0736 0.27877 9.8262 2.25 1.1003 1.2375 7.3096 10.462 13.798 20.5 6.4888 10.038 12.107 18.25 12.485 18.25 0.37776 0 6.2399-8.2125 13.027-18.25s13.251-19.262 14.363-20.5c1.7485-1.9444 3.0181-2.25 9.349-2.25 5.3562 0 7.3257 0.35063 7.3257 1.3042 0 0.7173-7.4053 12.034-16.456 25.148-13.622 19.737-16.285 24.163-15.462 25.701 0.54685 1.0218 8.0013 12.522 16.565 25.555 8.5641 13.034 15.813 24.327 16.108 25.096 0.29508 0.76898-0.0916 1.7958-0.8592 2.2819-1.949 1.2341-11.321 1.1333-14.142-0.15217-1.4328-0.65281-7.5051-9.1872-15.653-22-7.3219-11.513-13.709-20.933-14.195-20.933s-7.2043 9.4676-14.931 21.039c-9.6252 14.414-14.845 21.342-16.577 22-3.1934 1.2141-11.435 1.2226-13.346 0.0136zm145.23 0.14237c-0.83012-0.52746-1.3083-4.9056-1.5-13.735l-0.28145-12.96-47.943-1-1.2637-2.5c-2.8764-5.6906-2.3546-6.5994 23.862-41.549l25.156-33.535 13.189 0.58428 0.52722 65.413 7.2157 0.29354c6.8608 0.27909 7.2631 0.42877 8.1794 3.0435 0.61764 1.7624 0.6182 3.7376 2e-3 5.5-0.89934 2.5703-1.4185 2.7827-7.943 3.25l-6.9813 0.5-0.26957 12.5c-0.22226 10.306-0.56297 12.719-1.9411 13.75-1.8466 1.3809-8.0976 1.6589-10.008 0.44511zm-1.5121-62.035c0.17085-14.169-0.0866-22.216-0.70391-22-0.86441 0.30178-33.065 43.679-33.065 44.541 0 0.19075 7.5375 0.22343 16.75 0.0726l16.75-0.27415zm169.94 61.59c-1.3782-1.0306-1.7189-3.444-1.9411-13.75l-0.26957-12.5-23.111-0.26809c-25.705-0.29817-25.533-0.25187-26.741-7.2319-0.57811-3.3424 0.53054-5.0083 24.623-37l25.229-33.5h13l1 65 5.5 0.25923c9.5441 0.44984 10 0.70332 10 5.5598 0 2.3545-0.54 4.821-1.2 5.481-0.67498 0.67498-3.9096 1.2-7.393 1.2-4.7247 0-6.3369 0.37502-6.8 1.5818-0.33385 0.86998-0.60699 6.8968-0.60699 13.393 0 12.961-0.03152 13.025-6.3907 13.025-1.7749 0-3.9793-0.5625-4.8986-1.25zm-1.7107-61.464c0-19.72-0.18865-22.521-1.4312-21.25-2.3209 2.3746-31.546 42.394-31.558 43.214-6e-3 0.4125 7.414 0.75 16.489 0.75h16.5zm-668.43-92.857c-1.1438-1.1438-1.5714-3.5736-1.5714-8.9286s0.42765-7.7848 1.5714-8.9286c1.4137-1.4137 15.698-1.5714 142.3-1.5714 108.12 0 141.01 0.27804 141.93 1.2 0.73974 0.73974 1.2 4.37 1.2 9.4648 0 7.1477-0.26144 8.4047-1.9343 9.3-1.3069 0.69943-47.339 1.0352-141.93 1.0352-125.93 0-140.15-0.15782-141.57-1.5714zm364.13-28.64c-15.841-16.109-32.266-33.063-36.5-37.678l-7.698-8.3893-0.27582-52.36c-0.30546-57.985-0.40805-56.973 6.071-59.868 3.9312-1.7567 107.83-28.492 110.73-28.492 3.2217 0 6.6015 2.0515 33.427 20.289 13.777 9.3668 31.349 21.272 39.049 26.456 15.515 10.446 18.316 12.73 19.561 15.952 0.78589 2.0337-3.4168 96.403-4.6338 104.05-1.0891 6.8422-1.0615 6.83-64.564 28.708-32.8 11.3-61.15 20.563-63 20.584-3.1028 0.0353-5.6002-2.2357-32.166-29.25zm91.884-10.771c25.805-8.8961 47.435-16.702 48.067-17.346 0.74524-0.75957 1.7147-12.595 2.7581-33.671 0.88493-17.875 1.8884-36.438 2.2298-41.25 0.5768-8.1292 0.48754-8.7457-1.2581-8.6893-1.0334 0.0334-24.154 6.9014-51.379 15.262l-49.5 15.201-0.26059 43.849c-0.21608 36.358-0.0312 43.761 1.0818 43.334 0.73834-0.28333 22.456-7.7937 48.261-16.69zm-63.582-30.446c0-35.549-0.21353-41.642-1.5047-42.933-4.1591-4.1591-49.795-45.184-50.582-45.472-0.5407-0.1974-0.91305 15.376-0.91305 38.188v38.521l25.712 26.562c14.142 14.609 26.067 26.562 26.5 26.562s0.78815-18.643 0.78815-41.429zm30-58.723c11.275-3.396 20.848-6.4712 21.272-6.8338 1.2362-1.0553-58.849-46.016-61.485-46.008-4.3995 0.0137-35.287 8.5894-35.287 9.7971 0 1.355 52.46 49.139 54 49.187 0.55 0.0172 10.225-2.7473 21.5-6.1433zm46.698-14.271c4.2909-1.3322 12.442-3.8352 18.114-5.5623 5.6719-1.7271 10.172-3.5437 10-4.037-0.29168-0.83694-60.123-41.725-62.313-42.583-1.5462-0.60645-32.8 7.9743-33.163 9.1049-0.24827 0.77383 58.009 45.5 59.265 45.5 0.16192 0 3.8051-1.09 8.096-2.4221zm94.968 140.76c-1.1996-1.1996-0.73895-16.861 0.53333-18.133 0.92201-0.92201 33.926-1.2 142.46-1.2 138.64 0 141.28 0.0359 142.3 1.9343 1.1164 2.086 1.4231 13.891 0.4282 16.484-0.5495 1.4321-14.064 1.5818-142.83 1.5818-78.224 0-142.53-0.3-142.89-0.66667z" fill="#274c92"></path><path d="m461.63 784.41c-19.659-4.7584-34.173-21.792-36.887-43.29-4.804-38.06 22.025-65.988 58.687-61.091 24.507 3.2736 41.598 22.218 43.276 47.97 1.8298 28.078-13.306 50.683-37.803 56.457-7.8908 1.86-19.477 1.8402-27.273-0.0467zm27.473-13.768c7.3018-3.0037 11.406-5.9912 14.949-10.882 8.6364-11.922 10.343-32.334 3.9507-47.247-2.2384-5.222-8.0829-11.908-13.273-15.185-5.7093-3.6041-15.095-5.6809-22.534-4.9862-21.243 1.9837-34.822 20.127-32.9 43.956 1.4826 18.376 10.081 30.672 24.57 35.133 7.4058 2.2803 18.628 1.9293 25.237-0.78933zm250.18 13.903c-2.3177-0.72433-6.2742-2.5243-8.7922-4-15.532-9.1024-19.253-34.592-7.7741-53.248 5.2603-8.549 32.184-44.179 34.199-45.257 2.4735-1.3238 15.082-1.3754 15.082-0.0618 0 0.54-6.75 9.4892-15 19.887-14.512 18.29-17.011 22.179-13.25 20.619 0.9625-0.39917 4.9357-0.95157 8.8294-1.2276 9.8893-0.70095 16.768 1.4478 23.228 7.2562 7.4661 6.7127 9.6638 11.935 9.6796 23.001 0.0117 8.1938-0.28861 9.6303-3.2869 15.724-3.189 6.481-8.1294 11.637-14.154 14.771-7.3981 3.8484-20.785 5.0294-28.76 2.5372zm21.336-12.367c11.903-6.1028 15.455-20.812 7.8279-32.413-6.8086-10.356-25.184-11.218-34.153-1.6034-7.7662 8.3258-6.7945 25.641 1.799 32.057 6.7585 5.046 16.922 5.8582 24.526 1.9598zm-422.96 12.151c-0.36667-0.36666-0.66667-23.802-0.66667-52.078v-51.411l24.25 0.39223c26.71 0.43202 29.991 1.0415 37.085 6.8886 4.696 3.8709 7.4552 9.236 8.2546 16.051 1.1585 9.876-2.672 18.113-10.847 23.324-2.5884 1.65-4.7144 3.2764-4.7246 3.6141-0.0101 0.33778 2.0244 1.3943 4.5211 2.3478 10.051 3.8383 14.409 10.495 14.429 22.038 0.0256 14.689-8.2077 24.222-24.169 27.985-6.5079 1.5343-46.738 2.2431-48.133 0.84807zm46.429-12.867c7.7903-2.7486 11.904-8.4417 11.904-16.474 0-6.7218-3.2704-11.769-9.4629-14.604-5.009-2.2932-6.2467-2.426-20.187-2.1657l-14.85 0.27731-0.27646 15.96c-0.15205 8.7779-0.0537 16.54 0.21862 17.25 0.75823 1.9759 26.916 1.7807 32.654-0.24366zm-4.5-45.939c3.0726-0.91247 6.2677-2.8231 8.4001-5.0232 3.1089-3.2076 3.4769-4.2004 3.8092-10.277 0.31536-5.7662 0.0323-7.2267-1.9818-10.227-3.9674-5.9096-8.3983-7.3752-23.691-7.8358-10.56-0.31812-13.549-0.11515-14.235 0.96658-1.0091 1.5929-1.2224 32.212-0.23136 33.203 1.3128 1.3128 22.891 0.69011 27.929-0.80593zm152.4 58.458c0-0.55793 7.6822-12.525 17.071-26.593 9.3893-14.068 16.85-26.156 16.579-26.861-0.27083-0.70579-7.3479-11.345-15.727-23.644-8.3789-12.298-15.447-23.174-15.707-24.168-0.43113-1.6487 0.22205-1.7822 7.4054-1.5138l7.8782 0.29437 13.235 19.995c7.2792 10.997 13.613 20.121 14.074 20.275 0.4616 0.15386 6.8534-8.6189 14.204-19.495s13.842-20.105 14.426-20.509c1.6844-1.1664 14.561-0.91152 14.561 0.28817 0 0.57942-7.0356 11.225-15.635 23.657s-15.832 23.36-16.074 24.284c-0.26242 1.0035 6.4116 12.103 16.565 27.551 9.3527 14.228 16.784 26.226 16.515 26.662-0.56365 0.912-12.454 1.0816-14.725 0.21001-0.83459-0.32026-7.6688-10.22-15.187-22-7.5183-11.78-14.067-21.418-14.552-21.418-0.48521 0-6.7953 8.8875-14.022 19.75s-14.061 20.762-15.187 22c-1.7406 1.9137-3.0668 2.25-8.8722 2.25-3.9485 0-6.8257-0.42761-6.8257-1.0144zm144.63-0.51946c-0.34395-0.89633-0.62537-6.9929-0.62537-13.548v-11.918h-22.566c-13.306 0-23.341-0.41515-24.456-1.0118-2.6476-1.4169-4.2492-7.6354-2.6862-10.429 0.66453-1.1878 11.957-16.424 25.095-33.859l23.887-31.7h12.699l0.26367 32.75 0.26366 32.75 15 1 0.31822 3.8818c0.17502 2.135-0.184 4.385-0.79783 5-0.61384 0.61502-4.132 1.3432-7.8182 1.6182l-6.7022 0.5-1 26-5.1246 0.29791c-3.9991 0.23248-5.262-0.06-5.75-1.3318zm-0.62537-59.316c0.45754-20.452 0.13985-25.623-1.4749-24.009-2.6024 2.6024-32.525 44.517-32.525 45.56 0 1.0864 3.2388 1.2938 16.75 1.0726l16.75-0.27418zm169.5 59.652c-0.26172-0.71646-0.59419-6.7026-0.73882-13.303l-0.26296-12-23.788-0.5c-26.008-0.54667-25.067-0.30436-26.313-6.7754-0.77006-3.9987-2.072-2.0443 26.796-40.225l22.305-29.5h13l1 65 14.5 0.58762v4.421c0 5.4078-1.57 6.4914-9.4052 6.4914h-5.5367l-0.27902 13.25-0.27903 13.25-5.2612 0.30265c-3.638 0.20927-5.408-0.0992-5.737-1zm-0.73313-60.642c0.2066-17.949-0.0116-23.246-0.94474-22.935-1.9508 0.65028-33.973 44.724-33.294 45.824 0.38236 0.61868 6.9642 0.89461 17.294 0.72498l16.676-0.27384zm-669.34-93.495c-0.2832-0.73801-0.38217-4.9021-0.21993-9.2534l0.29497-7.9116h284v18l-141.78 0.25344c-117.85 0.21066-141.87 0.027-142.29-1.0884zm393.02-0.38625c-2.8206-1.6447-63.574-63.603-69.723-71.106l-2.7264-3.3267v-105.74l2.25-2.6036c1.9988-2.3129 8.2798-4.1654 56.25-16.59 36.007-9.3263 55.333-13.889 58-13.695 3.374 0.24622 10.682 4.8234 46.694 29.246 23.482 15.925 43.247 29.987 43.923 31.249 1.282 2.3954 1.3224 1.225-2.687 77.775-1.5764 30.098-1.9456 32.107-6.3304 34.454-2.1667 1.1596-116.28 40.604-120.1 41.515-1.5417 0.36733-3.6694-0.0862-5.5506-1.1831zm63.405-37.695c26.045-9.0162 47.828-16.866 48.406-17.445 1.187-1.187 5.6532-82.661 4.6228-84.329-0.57877-0.93646-97.396 27.815-102.13 30.33-1.6256 0.86307-1.75 4.0195-1.75 44.394 0 40.733 0.11 43.464 1.75 43.453 0.9625-6e-3 23.06-7.3883 49.104-16.404zm-62.854-31.122v-41.42l-26.142-23.771c-14.378-13.074-26.753-23.917-27.5-24.095-1.1259-0.26812-1.3577 6.3291-1.3577 38.639v38.962l21.579 22.361c27.959 28.972 31.205 32.113 32.413 31.366 0.65052-0.40205 1.0076-15.3 1.0076-42.042zm29-57.962c11.717-3.575 21.494-6.5 21.726-6.5s0.27563-0.64669 0.0978-1.4371c-0.34465-1.5319-58.258-45.549-60.871-46.266-1.9526-0.53545-35.926 8.2768-37.332 9.6837-0.72226 0.72226-0.44032 1.6005 0.91942 2.8639 2.5822 2.3993 31.339 28.36 43.681 39.434 5.346 4.7967 9.89 8.7212 10.098 8.7212s9.9649-2.925 21.682-6.5zm58.431-17.818c9.3118-2.8959 17.094-5.7544 17.293-6.3522 0.4157-1.2471-60.087-42.485-63.207-43.082-1.7262-0.32998-13.023 2.1831-30.766 6.8441-2.0625 0.54182-3.731 1.5303-3.7078 2.1966 0.0656 1.8834 58.922 45.715 61.344 45.685 1.1625-0.0146 9.7325-2.396 19.044-5.2918zm83.994 142.98c-0.2832-0.73801-0.38217-4.9021-0.21993-9.2534l0.29497-7.9116h284v18l-141.78 0.25344c-117.85 0.21066-141.87 0.027-142.29-1.0884z" fill="#17316d"></path><path d="m461.11 783.42c-23.468-6.3112-37.598-28.17-35.822-55.416 1.6651-25.551 17.968-43.684 42.378-47.136 27.4-3.8748 50.774 11.673 56.952 37.883 2.4226 10.278 1.4772 25.653-2.1368 34.75-6.3697 16.033-17.227 25.854-33.176 30.008-7.1588 1.8646-21.094 1.8207-28.194-0.0889zm30.008-12.608c11.047-5.0751 17.692-13.714 20.408-26.531 2.5085-11.838 1.2771-23.334-3.6142-33.739-9.8098-20.869-41.129-25.684-58.302-8.9629-8.3636 8.1435-13.008 24.753-10.833 38.743 2.6248 16.884 11.074 27.578 25.506 32.285 6.8026 2.2186 20.022 1.3342 26.834-1.7951zm246.37 12.449c-13.552-4.8405-20.492-15.767-20.492-32.262 0-8.6168 2.2236-16.389 6.8308-23.877 3.7465-6.0888 31.742-43.738 33.187-44.631 1.9937-1.2322 12.672-1.801 13.345-0.71087 0.35052 0.56716-6.3378 9.8846-14.863 20.706s-15.5 20.141-15.5 20.712c0 0.63631 1.0634 0.76447 2.75 0.33142 1.5125-0.38834 6.35-0.92965 10.75-1.2029 10.926-0.67858 17.622 1.7931 23.963 8.8458 5.8151 6.4678 7.9613 13.318 7.3172 23.355-0.80258 12.506-7.3426 22.081-18.632 27.279-7.5023 3.4543-21.123 4.1461-28.656 1.4555zm23.497-10.255c4.7145-2.4052 9.455-7.7929 11.015-12.518 1.9788-5.9957 0.88691-15.542-2.3343-20.409-5.3274-8.0502-15.268-11.499-24.994-8.6717-13.064 3.7979-19.86 16.785-15.538 29.695 4.253 12.703 19.279 18.318 31.852 11.904zm-422.75-40.255 0.25908-51.25 20.5 0.03c16.682 0.0245 21.758 0.3713 27.255 1.8624 12.327 3.3437 18.438 10.132 19.481 21.639 0.89498 9.87-3.0242 17.708-11.27 22.541-2.4564 1.4395-4.4661 2.9916-4.4661 3.449 0 0.45742 2.5753 2.0107 5.7229 3.4517 3.1476 1.441 6.5705 3.3865 7.6064 4.3233 3.4189 3.0918 5.8651 9.2669 5.9851 15.109 0.23274 11.328-4.0678 19.521-12.991 24.75-7.5231 4.4088-13.803 5.3112-37.083 5.3283l-21.259 0.01567zm44.259 40.146c8.3244-2.2739 14.428-9.8343 14.478-17.934 0.03534-5.6938-3.7998-12.085-8.978-14.962-4.1751-2.3195-5.6468-2.5246-20.385-2.8403-12.477-0.26727-16.067-0.0527-16.735 1-1.3769 2.1723-1.0901 33.23 0.31988 34.64 1.5486 1.5486 25.711 1.6229 31.3 0.0962zm1.0723-47.978c6.9635-3.5827 9.6176-8.403 9.1715-16.657-0.41359-7.6517-2.4862-10.829-9.2834-14.231-4.3032-2.154-6.5931-2.5222-17.871-2.8736-11.617-0.36196-13.071-0.21813-14.262 1.4117-1.6876 2.3079-1.8818 30.527-0.23131 33.611 1.0364 1.9365 1.8113 2.0264 14.322 1.6608 11.76-0.34365 13.773-0.6677 18.154-2.9218zm149.43 58.641c0-0.29312 7.676-12.072 17.058-26.174 9.3817-14.103 16.858-26.162 16.614-26.798-0.24416-0.63628-7.31-11.241-15.702-23.565-8.3919-12.324-15.471-23.221-15.73-24.215-0.4135-1.5812 0.21763-1.8064 5.0624-1.8064 3.0442 0 6.3132 0.29867 7.2645 0.66372 0.95129 0.36504 7.7361 9.815 15.077 21 7.3413 11.185 13.776 20.336 14.3 20.336s7.0707-8.995 14.549-19.989 14.448-20.444 15.487-21c2.4345-1.3029 10.716-1.3132 11.519-0.0143 0.33881 0.5482-6.4524 11.221-15.092 23.718-8.6392 12.497-15.897 23.445-16.128 24.329-0.23735 0.90765 6.7964 12.574 16.151 26.787 9.1141 13.849 16.571 25.627 16.571 26.174 0 0.55723-2.8615 0.99429-6.5098 0.99429-5.1538 0-6.848-0.39502-8.1336-1.8965-0.89309-1.043-7.3152-10.827-14.271-21.742-6.9562-10.915-13.309-19.956-14.116-20.09-0.92416-0.15365-6.8455 7.8158-15.969 21.492l-14.5 21.737-6.75 0.29569c-3.7125 0.16263-6.75 0.0559-6.75-0.23726zm144.48-0.80843c-0.25061-0.6875-0.57399-6.65-0.71862-13.25l-0.26296-12-23.5-0.5c-12.925-0.275-24.002-0.82657-24.615-1.2257-0.61337-0.39914-1.3846-2.3857-1.7138-4.4146-0.57938-3.5703 0.17644-4.7206 23.507-35.774 13.258-17.647 24.83-32.668 25.714-33.379 0.93357-0.75135 3.4948-1.1707 6.1078-1l4.5 0.29398 0.5 32c0.275 17.6 0.86406 32.562 1.309 33.25 0.51921 0.80224 3.2954 1.25 7.75 1.25h6.941v3.893c0 4.613-0.86809 5.107-8.9748 5.107-4.3766 0-5.9611 0.3905-6.4182 1.5818-0.33385 0.86998-0.60699 6.945-0.60699 13.5v11.918h-4.5314c-2.7154 0-4.714-0.50094-4.987-1.25zm-2.0634-35.357c1.3828-0.53062 1.5818-3.6866 1.5818-25.083 0-19.105-0.27366-24.385-1.2469-24.061-1.0343 0.34477-23.162 29.696-32.398 42.974-4.4419 6.3859-3.6035 6.7769 14.532 6.7769 8.7723 0 16.661-0.27314 17.531-0.60699zm170.58 24.689c0-6.555-0.27314-12.63-0.60699-13.5-0.5295-1.3799-3.5861-1.5818-23.943-1.5818-22.981 0-23.36-0.0338-24.893-2.2225-3.3634-4.802-2.5102-6.3239 21.55-38.437 12.709-16.962 24.235-31.876 25.614-33.141 2.0044-1.8387 3.4376-2.2399 7.1435-2l4.636 0.30013 0.26364 32.734 0.26365 32.734 2.2364 0.5064c1.23 0.27852 4.7114 0.62305 7.7364 0.76563 5.348 0.25207 5.5083 0.3445 5.8011 3.3444 0.40943 4.1956-1.2608 5.256-8.8394 5.6116l-6.4616 0.30321-0.27903 13.25-0.27902 13.25h-9.942zm-1.2-25.282c1.3818-1.3818 1.7655-47.332 0.40225-48.175-0.43876-0.27117-1.2602-0.18523-1.8254 0.19098-2.6039 1.7332-34.456 46.534-33.976 47.787 0.72003 1.8764 33.537 2.059 35.399 0.19696zm-668.8-125.3v-8.5h283v17h-283zm392 6.796c-2.7791-1.835-56.205-56.538-65.25-66.809l-5.75-6.5297v-106.05l2.25-2.2397c1.7412-1.7333 9.5986-4.126 34.75-10.582 17.875-4.5883 42.742-10.972 55.26-14.186 18.178-4.6672 23.283-5.6448 25.359-4.8557 3.2166 1.223 81.837 54.278 85.631 57.786 3.4605 3.1998 3.4523 1.1865 0.25136 61.669-2.1582 40.78-2.7199 47.311-4.2444 49.351-1.3933 1.8646-14.274 6.6768-62.234 23.25-33.263 11.494-61.163 20.887-62 20.872-0.83744-0.0146-2.6476-0.76946-4.0226-1.6774zm63.73-35.766c26.201-9.0585 48.26-17.092 49.02-17.851 1.0456-1.0456 1.8475-10.106 3.2996-37.28 2.2547-42.194 2.3761-49.399 0.83258-49.399-2.2636 0-100.46 30.263-102.63 31.631l-2.25 1.4155v43.31c0 23.821 0.3 43.61 0.66667 43.977 0.36666 0.36667 1.2872 0.66667 2.0456 0.66667s22.816-7.4115 49.018-16.47zm-61.969-30.177c0.14355-22.616-0.0815-41.992-0.5-43.058-1.0687-2.7219-52.208-48.795-54.161-48.795-1.4353 0-1.6272 4.0324-1.8618 39.119l-0.26149 39.119 26.74 27.66c15.781 16.324 27.364 27.54 28.261 27.367 1.327-0.25538 1.5544-5.5405 1.7821-41.412zm29.871-59.441c10.927-3.3482 20.48-6.6758 21.227-7.3947 1.1312-1.0879-3.8152-5.2037-29.5-24.546-16.972-12.782-31.534-23.412-32.359-23.623-0.825-0.21075-9.825 1.7828-20 4.4302-15.068 3.9205-18.5 5.1361-18.5 6.5534 0 1.007 11.375 12.037 27 26.181 20.718 18.755 27.612 24.446 29.632 24.464 1.4476 0.0125 11.573-2.7168 22.5-6.065zm56.72-17.35c9.8185-2.9878 18.087-5.6671 18.374-5.954 1.3839-1.3839-1.7682-4.0366-17.361-14.61-43.259-29.335-45.857-30.997-48.338-30.924-1.3896 0.0408-9.5015 1.954-18.027 4.2515-12.098 3.2605-15.5 4.5416-15.5 5.8374 0 1.9306 58.848 46.838 61.372 46.834 0.89535-2e-3 9.6612-2.4474 19.48-5.4351zm84.648 133.94v-8.5h283v17h-283z" fill="#081547"></path><path d="m461.26 782.46c-17.194-4.6307-29.553-17.837-33.885-36.208-2.0593-8.7337-1.3657-24.398 1.4318-32.337 2.9745-8.4409 4.657-11.225 10.785-17.844 14.142-15.275 38.759-19.339 58.876-9.7188 16.949 8.105 26.474 24.879 26.512 46.69 0.0428 24.739-13.656 43.732-35.679 49.468-7.1028 1.85-21.08 1.8252-28.042-0.0499zm30.47-10.907c18.911-8.5264 27.057-33.09 18.826-56.765-4.3857-12.614-13.572-20.628-26.863-23.437-9.2625-1.9571-18.517-0.62838-26.958 3.8704-10.036 5.3491-15.622 13.726-18.507 27.753-1.9464 9.4648-0.63657 22.28 3.1149 30.474 4.5874 10.02 13.961 17.906 24.399 20.524 7.1369 1.7906 19.126 0.67438 25.988-2.4196zm246.61 11.071c-20.582-6.7166-27.13-34.142-13.298-55.698 6.6001-10.285 31.06-42.416 33.19-43.599 2.6864-1.4919 10.762-1.7509 10.762-0.34519 0 0.54-6.75 9.4892-15 19.887-8.25 10.398-15 19.682-15 20.632 0 1.4193 0.57807 1.6065 3.25 1.0523 8.4255-1.7476 18.633-1.7526 23.874-0.0117 7.536 2.5031 14.233 9.4381 16.438 17.023 2.2427 7.7146 1.5831 18.605-1.4885 24.578-3.204 6.2301-9.5629 12.385-15.474 14.978-6.3359 2.779-20.884 3.5814-27.253 1.503zm23.621-9.4466c7.3864-3.658 11.288-9.8075 11.853-18.684 0.48344-7.5923-0.97929-12.466-5.1754-17.246-8.5724-9.7636-25.617-10.077-35.037-0.64436-10.61 10.624-8.0159 30.325 4.8931 37.165 7.2008 3.8152 14.964 3.6196 23.467-0.59138zm-422.97-40.596v-50.581l15.25 8e-3c38 0.0204 48.852 4.9983 50.499 23.163 0.88868 9.8006-3.4298 17.447-12.749 22.575-3.7045 2.0383-4.484 4.0782-2 5.2335 11.657 5.4215 13.181 6.4732 15.762 10.878 2.2754 3.8827 2.6604 5.6474 2.5672 11.768-0.14405 9.4632-3.6582 16.423-10.652 21.097-7.6585 5.1183-10.309 5.5686-35.427 6.0201l-23.25 0.41793v-50.581zm48.243 39.584c5.4966-2.7069 8.2097-6.0893 9.8731-12.308 2.2656-8.4707-1.2188-16.409-9.1548-20.856-4.145-2.3228-5.5918-2.5242-20.408-2.8414-14.379-0.30782-16.075-0.16618-17.25 1.4411-1.5998 2.1879-1.8418 30.854-0.29481 34.923l1.0086 2.6528 15.741-0.33771c14.078-0.30201 16.243-0.58453 20.484-2.6735zm-3.9658-46.046c6.9876-3.3975 10.061-7.9322 10.497-15.488 0.65313-11.317-4.4288-17.289-16.692-19.614-6.7277-1.2759-24.084-1.3004-26.083-0.0368-1.2405 0.78414-1.5 3.9889-1.5 18.521 0 14.504 0.26193 17.75 1.5 18.584 0.88646 0.59757 6.8173 0.87731 14.5 0.68392 11.15-0.28066 13.68-0.65771 17.777-2.65zm167.78 31.289c9.3946-14.076 16.844-26.211 16.554-26.966s-7.5221-11.696-16.071-24.312c-8.5494-12.616-15.544-23.206-15.544-23.534s2.475-0.5952 5.5-0.5952c3.9436 0 5.9952 0.50228 7.25 1.775 0.9625 0.97624 7.3569 10.426 14.21 21 7.8358 12.09 13.069 19.225 14.1 19.225 1.0228 0 6.6654-7.5565 14.986-20.07 7.3403-11.038 14.128-20.488 15.084-21 1.8925-1.0128 9.1894-1.277 10.101-0.36566 0.31048 0.31048-6.5895 10.951-15.333 23.646-8.7438 12.695-15.898 23.733-15.898 24.53s7.425 12.681 16.5 26.409c9.075 13.728 16.5 25.161 16.5 25.405s-2.6303 0.44506-5.845 0.44506c-4.3285 0-6.2343-0.45405-7.3453-1.75-0.82515-0.9625-7.2888-10.862-14.364-22-8.8886-13.993-13.416-20.25-14.652-20.25-1.22 0-6.452 6.9966-16.451 22l-14.663 22h-11.699zm126.72 12.343-0.27903-13.25-24.169-0.5c-13.293-0.275-24.378-0.725-24.633-1s-0.77084-1.9312-1.1454-3.6804c-0.63727-2.9762 0.80869-5.1584 22.529-34 12.765-16.951 24.123-31.832 25.238-33.07 1.5038-1.6679 3.1376-2.25 6.315-2.25h4.2864l0.28932 32.537c0.24558 27.617 0.51615 32.681 1.7893 33.485 0.825 0.52104 4.341 0.95424 7.8134 0.96266l6.3134 0.0153-0.62672 6.5-6.5 0.28545c-4.6307 0.20336-6.8595 0.76161-7.75 1.9411-0.83596 1.1073-1.25 5.5672-1.25 13.465v11.809h-7.942zm-0.97903-21.95c0.869-0.869 1.2-8.0599 1.2-26.07 0-23.905-0.0739-24.857-1.9057-24.55-1.1494 0.19273-8.6108 9.4567-18.801 23.343-20.222 27.557-18.739 25.235-17.257 27.02 1.5972 1.9245 34.864 2.1563 36.764 0.2562zm170.2 23.634c0-6.3612-0.46583-12.436-1.0352-13.5-0.97824-1.8278-2.3241-1.9343-24.465-1.9343-33.698 0-33.628 2.0368-1.4084-40.611 13.25-17.539 24.733-32.253 25.517-32.699 0.78408-0.44513 3.1053-0.67013 5.1584-0.5l3.7328 0.30934 0.25593 32c0.29418 36.783-0.36735 34.5 9.9986 34.5h6.3722l-0.62672 6.5-15 1-0.27903 13.25-0.27902 13.25h-7.942zm-1.5538-24.023c1.3798-1.3798 1.5538-4.7676 1.3214-25.737-0.2389-21.559-0.44526-24.182-1.925-24.466-1.1631-0.22364-6.8304 6.7131-19 23.256-9.5384 12.966-17.499 24.3-17.691 25.186-0.19162 0.88602 0.25838 1.9955 1 2.4654 0.74161 0.46998 8.8538 0.86141 18.027 0.86983 13.921 0.0128 16.941-0.24738 18.268-1.5737zm-668.45-125.91v-7.5h281v15h-281zm368.69-16.716c-13.093-13.356-29.181-30.001-35.75-36.989l-11.944-12.705v-53.045c0-49.39 0.12181-53.166 1.7679-54.813 1.1694-1.1694 20.465-6.5918 56.993-16.016 52.542-13.556 55.383-14.18 58.482-12.835 4.7445 2.0593 84.919 56.807 86.154 58.83 1.5357 2.5171-3.823 105.29-5.632 108.02-0.95804 1.4429-17.961 7.7411-61.771 22.881-33.247 11.49-61.359 20.906-62.471 20.924-1.3441 0.0224-10.009-8.1128-25.829-24.25zm86.598-11.401c26.514-9.1396 48.786-17.159 49.493-17.821 0.92601-0.86716 1.8296-11.381 3.2344-37.633 2.3863-44.594 2.4463-49.813 0.58092-50.529-2.1069-0.80848-103.87 30.458-105.35 32.369-0.95532 1.2331-1.25 11.686-1.25 44.341 0 23.5 0.27314 43.439 0.60699 44.309 0.33384 0.86999 1.4778 1.5818 2.5422 1.5818s23.629-7.4778 50.143-16.617zm-61.306-31.324c-8e-3 -22.307-0.2658-41.498-0.57397-42.646-0.82875-3.0866-53.158-49.913-55.779-49.913h-2.1336l-0.26152 39.797-0.26151 39.797 27.108 27.902c14.909 15.346 27.627 28.098 28.262 28.338 3.3651 1.2723 3.6539-2.1608 3.64-43.275zm29.385-58.389c11.379-3.4815 21.14-6.7813 21.692-7.3328 0.55152-0.55152 0.73903-1.6405 0.41668-2.42-0.57203-1.3832-58.997-45.593-62.45-47.256-1.4139-0.68073-25.266 4.7537-39.28 8.9493-4.2737 1.2795-1.1451 4.8112 25.979 29.327 21.328 19.276 28.332 25.062 30.341 25.062 1.4367 0 11.922-2.8485 23.301-6.33zm56.049-17.129c17.781-5.4109 21.168-6.9824 19.794-9.1861-1.3404-2.1497-64.548-44.355-66.427-44.355-3.5017 0-34.279 8.3184-35.751 9.6626-1.2809 1.1699-1.2461 1.5566 0.27778 3.0874 4.5833 4.6042 60.436 46.041 62.187 46.136 1.1 0.0596 10.064-2.3455 19.92-5.3447zm85.58 132.96v-7.5h281v15h-281z" fill="#000632"></path></svg>